<svg width="26" height="27" viewBox="0 0 26 27" fill="none" xmlns="http://www.w3.org/2000/svg">
<g filter="url(#filter0_d_721_2)">
<path fill-rule="evenodd" clip-rule="evenodd" d="M8.26164 19.2874C8.4589 19.4651 8.5951 19.5927 9.01595 19.9925C9.42816 20.3841 9.6275 20.5691 9.80978 20.7238C9.8858 20.7879 9.95061 20.9591 9.97629 21.2136C9.99742 21.423 9.99007 21.6566 9.96445 21.8817C9.9556 21.9596 9.94705 22.0157 9.94216 22.0425C9.88721 22.3428 10.1161 22.6201 10.4213 22.6232C10.696 22.626 10.9077 22.6294 11.4679 22.6394C11.6081 22.6419 11.6081 22.6419 11.7487 22.6443C13.2716 22.6705 14.0494 22.6633 14.6077 22.5931C15.2043 22.5181 15.8189 21.7975 16.3501 20.8933C16.8002 21.6934 17.4245 22.4747 18.055 22.5763C18.2553 22.6083 18.4976 22.6182 18.7784 22.6117C18.9878 22.6069 19.2094 22.5931 19.433 22.5731C19.6016 22.5581 19.736 22.5429 19.8162 22.5325C20.1127 22.4941 20.3068 22.2023 20.2275 21.914C20.2104 21.8517 20.1829 21.7375 20.1552 21.5936C20.123 21.4268 20.0998 21.264 20.0892 21.1156C20.0826 21.0215 20.0812 20.9363 20.0855 20.8627C20.0929 20.7344 20.0952 20.6625 20.0988 20.4965C20.1002 20.4346 20.1002 20.4346 20.102 20.3805C20.1089 20.2035 20.1327 20.0354 20.2097 19.6689C20.2427 19.5098 20.403 19.2053 20.6554 18.8286C20.7306 18.7164 20.8127 18.5992 20.9008 18.4782C21.0677 18.2488 21.2474 18.017 21.4272 17.7952C21.5349 17.6623 21.6181 17.5629 21.6645 17.5089C22.0533 16.9519 22.4679 16.04 22.6202 15.5069C22.7664 14.9945 22.8834 14.0508 22.9553 13.1233C22.9947 12.5972 23.0092 12.173 23.0092 11.5077C23.0093 11.391 23.0093 11.391 23.0095 11.2946C23.0099 11.1368 23.0099 11.0771 23.0094 11.0033C23.008 10.8017 23.0021 10.6019 22.9826 10.0924C22.9407 9.02446 22.3555 8.33403 21.4931 8.20086C20.7594 8.08756 19.8664 8.69693 19.8664 8.69693C19.8664 8.69693 19.6677 8.01074 19.5334 7.7989C19.3153 7.45851 18.7536 7.02475 18.3242 6.94025C17.8825 6.85449 17.3589 6.86398 16.8781 6.94901C16.4571 7.02436 16.0377 7.40029 15.7951 7.80578C15.6215 8.09504 15.7848 7.79043 15.6112 7.4912C15.3709 7.07904 14.8114 6.70997 14.2787 6.60103C13.8272 6.50768 13.31 6.54323 12.8376 6.68364C12.2298 6.86524 12.1331 7.32772 12.1089 7.19531C12.0281 6.75137 12.0206 6.78055 11.9703 6.46386C11.7831 5.28881 11.5737 4.47577 11.2562 3.7663C11.2744 3.80709 11.1399 3.50098 11.0909 3.39543C11.0061 3.21266 10.9215 3.04723 10.8284 2.88812C10.5416 2.3977 10.213 2.03052 9.8006 1.82192C9.08449 1.45929 8.01112 1.63577 7.50234 2.22965C6.99708 2.81984 6.91284 3.80661 7.04008 5.02769C7.08868 5.50178 7.25899 6.36731 7.41342 7.0071C7.46803 7.22916 7.51588 7.43168 7.60363 7.80578C7.61872 7.86941 7.61872 7.86941 7.63394 7.93306C7.70182 8.21619 7.76135 8.44914 7.83242 8.70476C7.82496 8.67812 7.95975 9.15638 7.98846 9.26222C7.99801 9.29755 7.99801 9.29755 8.00747 9.33304C8.06106 9.53487 8.11344 9.7525 8.19529 10.1157C8.24008 10.3154 8.28378 10.5287 8.32653 10.7549C8.44313 11.3717 8.44371 11.2432 8.33147 11.1117C8.25393 11.0208 8.18101 10.9383 8.11056 10.8623C7.97962 10.7209 7.85924 10.604 7.74496 10.5108C6.91231 9.8295 6.4021 9.52849 5.70163 9.46236C4.55265 9.35197 3.46225 10.1636 3.29829 11.2589C3.19746 11.9305 3.22994 12.2397 3.54063 12.8332C3.7116 13.1539 4.0008 13.5412 4.54039 14.2078C4.57342 14.2486 4.57342 14.2486 4.60642 14.2893C5.26877 15.1055 5.34092 15.1962 5.49841 15.4243C5.92413 16.042 6.96047 17.8158 7.14886 18.054L8.26164 19.2874Z" fill="black"/>
<path fill-rule="evenodd" clip-rule="evenodd" d="M5.37077 13.669C5.33811 13.6288 5.33811 13.6288 5.30554 13.5885C4.81034 12.9767 4.5388 12.6131 4.41098 12.3734C4.21041 11.9902 4.1995 11.8863 4.27178 11.4049C4.35675 10.8373 4.96979 10.381 5.6083 10.4423C6.05009 10.484 6.43607 10.7117 7.12213 11.273C7.19641 11.3337 7.28597 11.4206 7.38841 11.5312C7.44901 11.5966 7.51327 11.6694 7.58266 11.7507C7.68689 11.8728 8.03814 12.3026 7.98641 12.2401C8.06272 12.3318 8.11729 12.4029 8.17963 12.49C8.30314 12.6663 8.37263 12.7643 8.46674 12.8897C8.42262 12.8308 8.74857 13.2814 8.8176 13.3473C9.18326 13.6964 9.71277 13.4024 9.6796 12.9372C9.67406 12.8596 9.6558 12.7757 9.61767 12.6292C9.4669 11.554 9.41416 11.2089 9.29377 10.572C9.24905 10.3354 9.20314 10.1113 9.15568 9.89977C9.07122 9.52495 9.01609 9.29592 8.95887 9.08043C8.94871 9.04228 8.94871 9.04228 8.9385 9.00453C8.9083 8.8932 8.77148 8.40773 8.7806 8.4403C8.71321 8.1979 8.6565 7.97601 8.59118 7.70354C8.57633 7.64148 8.57633 7.64148 8.56151 7.57899C8.47424 7.20688 8.42517 6.99918 8.36981 6.77407C8.22545 6.17599 8.06235 5.34713 8.01924 4.92649C7.92019 3.97595 7.98853 3.17537 8.25 2.86995C8.45416 2.63164 9.03279 2.5365 9.35607 2.70021C9.56748 2.80715 9.77875 3.04319 9.97866 3.38503C10.0543 3.51441 10.1253 3.65313 10.198 3.80973C10.242 3.90457 10.3724 4.20134 10.3577 4.16852C10.6338 4.7853 10.8234 5.52154 10.9981 6.61859C11.0498 6.94364 11.1138 7.31189 11.1958 7.76243C11.2202 7.89603 11.2202 7.89603 11.2447 8.02906C11.6403 10.1754 11.6113 10.0128 11.617 10.184C11.6378 10.8084 12.5595 10.823 12.6001 10.1996C12.6129 10.0018 12.6084 9.82528 12.5855 9.31826C12.5823 9.24653 12.5823 9.24653 12.5792 9.17506C12.5592 8.70794 12.5604 8.43919 12.588 8.28643C12.6383 8.00787 12.8884 7.69583 13.1187 7.62701C13.4421 7.53089 13.7965 7.50653 14.0804 7.56523C14.3521 7.62079 14.6692 7.82998 14.7602 7.98605C14.8699 8.17505 14.9639 8.46298 15.0359 8.81989C15.0941 9.10795 15.1341 9.41699 15.1623 9.74683C15.171 9.84945 15.1767 9.92874 15.1855 10.0599C15.1893 10.1148 15.1893 10.1148 15.193 10.1601C15.1951 10.1829 15.1951 10.1829 15.2002 10.2188C15.2042 10.2439 15.2042 10.2439 15.223 10.3077C15.2325 10.4886 15.2325 10.4886 15.959 10.5556C16.176 10.2934 16.176 10.2934 16.1701 10.2474C16.2056 10.0921 16.2274 9.91891 16.2584 9.59358C16.2782 9.3821 16.2881 9.27814 16.2998 9.1703C16.3481 8.72389 16.4094 8.44027 16.4842 8.31559C16.577 8.16046 16.9039 7.9444 17.0506 7.91817C17.4188 7.85304 17.8231 7.84572 18.1353 7.90634C18.2767 7.93417 18.6216 8.20052 18.7033 8.32793C18.8709 8.59248 19.034 9.44537 19.1258 10.2916C19.1113 10.3471 19.1113 10.3471 19.3367 10.6691C20.1116 10.5807 20.1116 10.5807 20.0898 10.4408C20.1102 10.391 20.1265 10.3333 20.1495 10.2438C20.2049 10.0342 20.2416 9.91244 20.2963 9.77605C20.3341 9.6817 20.374 9.60102 20.4149 9.53681C20.5733 9.28753 20.9833 9.11817 21.3429 9.1737C21.7291 9.23334 21.9752 9.52368 21.999 10.1305C22.0181 10.6298 22.0237 10.8217 22.025 11.0101C22.0255 11.0797 22.0255 11.1355 22.0251 11.2925C22.0249 11.3895 22.0249 11.3895 22.0249 11.5077C22.0249 12.1494 22.0111 12.5492 21.9737 13.0486C21.9073 13.906 21.7951 14.811 21.6736 15.2366C21.5497 15.6705 21.1795 16.4846 20.8865 16.9081C20.8657 16.9282 20.7765 17.0347 20.6624 17.1754C20.4727 17.4095 20.2828 17.6544 20.1049 17.8989C20.0096 18.0298 19.9202 18.1573 19.8375 18.2807C19.5177 18.7582 19.3125 19.148 19.2461 19.4676C19.1589 19.8829 19.1277 20.1032 19.1184 20.342C19.1161 20.4096 19.1161 20.4096 19.1146 20.4752C19.1113 20.6301 19.1093 20.6927 19.1027 20.806C19.0959 20.925 19.0978 21.0516 19.1073 21.1854C19.121 21.3771 19.1073 21.6389 19.1073 21.6389C19.1073 21.6389 18.9411 21.6234 18.7558 21.6276C18.5294 21.6328 18.3411 21.6251 18.2109 21.6043C18.0232 21.5741 17.5162 20.9396 17.2565 20.4453C16.8598 19.6888 15.8967 19.7255 15.5019 20.3936C15.1459 20.9997 14.6361 21.5974 14.4848 21.6165C13.9932 21.6783 13.2318 21.6853 11.7657 21.6601C11.6255 21.6577 11.6255 21.6577 11.4855 21.6552C10.9225 21.6451 10.9442 21.7402 10.9557 21.6389C10.9886 21.3497 10.9849 21.4039 10.9557 21.1148C10.9068 20.6301 10.7572 20.2348 10.4454 19.9722C10.2842 19.8353 10.0913 19.6563 9.70386 19.2883C9.26125 18.8678 9.12263 18.7379 8.9518 18.5877L7.90009 17.4187C7.78465 17.271 6.77131 15.5366 6.3087 14.8653C6.12875 14.6047 6.06143 14.5201 5.37077 13.669ZM17.851 13.674V18.2139C17.851 18.8701 18.8354 18.8701 18.8354 18.2139V13.674C18.8354 13.0177 17.851 13.0177 17.851 13.674ZM15.1845 13.6732L15.2055 18.2315C15.2085 18.8878 16.1929 18.8832 16.1899 18.227L16.1689 13.6687C16.1659 13.0124 15.1815 13.017 15.1845 13.6732ZM13.5976 18.206L13.57 13.7094C13.566 13.0532 12.5816 13.0592 12.5856 13.7154L12.6132 18.2121C12.6172 18.8683 13.6016 18.8623 13.5976 18.206Z" fill="white"/>
</g>
<defs>
<filter id="filter0_d_721_2" x="0.622192" y="0.321564" width="25.0126" height="26.2743" filterUnits="userSpaceOnUse" color-interpolation-filters="sRGB">
<feFlood flood-opacity="0" result="BackgroundImageFix"/>
<feColorMatrix in="SourceAlpha" type="matrix" values="0 0 0 0 0 0 0 0 0 0 0 0 0 0 0 0 0 0 127 0" result="hardAlpha"/>
<feOffset dy="1.3125"/>
<feGaussianBlur stdDeviation="1.3125"/>
<feColorMatrix type="matrix" values="0 0 0 0 0 0 0 0 0 0 0 0 0 0 0 0 0 0 0.298656 0"/>
<feBlend mode="normal" in2="BackgroundImageFix" result="effect1_dropShadow_721_2"/>
<feBlend mode="normal" in="SourceGraphic" in2="effect1_dropShadow_721_2" result="shape"/>
</filter>
</defs>
</svg>
